<svg width="24" height="24" viewBox="0 0 71 66" fill="none" xmlns="http://www.w3.org/2000/svg">
  <path d="M33.7472 0C38.4351 0 42.2495 3.79044 42.2495 8.44892C42.2495 13.1074 38.4351 16.8979 33.7472 16.8979C29.0593 16.8979 25.2449 13.1074 25.2449 8.44892C25.2449 3.79044 29.0593 0 33.7472 0Z" fill="#3694FD"/>
  <path d="M8.50231 16.8979C3.81439 16.8979 0 13.1074 0 8.44892C0 3.79044 3.81439 0 8.50231 0C13.1902 0 17.0046 3.79044 17.0046 8.44892C17.0046 13.1074 13.1902 16.8979 8.50231 16.8979Z" fill="#3694FD"/>
  <path d="M22.1584 66C21.6052 66 21.1393 65.566 21.1393 64.9873V52.285C21.1393 51.7352 21.5761 51.3012 22.1002 51.2722C40.4151 50.7804 55.2068 36.0526 55.7309 17.8527C55.7309 17.3029 56.1968 16.8979 56.75 16.8979H69.5326C70.0858 16.8979 70.5517 17.3608 70.5517 17.9106C70.0276 44.1833 48.5971 65.4502 22.1875 65.9711L22.1584 66Z" fill="#3694FD"/>
</svg>
